<?xml version="1.0" standalone="yes"?>

<svg version="1.1" viewBox="0.0 0.0 377.3622047244094 476.2178477690289" fill="none" stroke="none" stroke-linecap="square" stroke-miterlimit="10" xmlns="http://www.w3.org/2000/svg" xmlns:xlink="http://www.w3.org/1999/xlink"><clipPath id="p.0"><path d="m0 0l377.3622 0l0 476.21783l-377.3622 0l0 -476.21783z" clip-rule="nonzero"></path></clipPath><g clip-path="url(#p.0)"><path fill="#000000" fill-opacity="0.0" d="m0 0l377.3622 0l0 476.21783l-377.3622 0z" fill-rule="evenodd"></path><path fill="#666666" d="m25.559055 188.66142l0 0c0 -104.19483 74.87773 -188.66142 167.2441 -188.66142l0 0c44.355896 0 86.895096 19.87677 118.259445 55.25765c31.36435 35.38088 48.98465 83.36766 48.98465 133.40378l0 0c0 104.19481 -74.877716 188.66142 -167.2441 188.66142l0 0c-92.366356 0 -167.2441 -84.46661 -167.2441 -188.66142z" fill-rule="evenodd"></path><path fill="#f9cb9c" d="m42.178116 227.08212c-14.519255 -24.608261 -27.203959 -32.525803 -30.14056 -18.813156c-2.9366016 13.7126465 4.7146215 45.13434 18.180336 74.662155c13.465717 29.527832 28.895382 48.71826 36.66296 45.59906z" fill-rule="evenodd"></path><path fill="#f9cb9c" d="m167.27559 10.0236225l52.850403 0l0 0c29.850418 0 58.478256 11.858036 79.58571 32.965477c21.107422 21.10744 32.965454 49.73527 32.965454 79.58571l0 112.551186c0 0.0012664795 -0.0010375977 0.0023040771 -0.002319336 0.0023040771l-277.95044 -0.0023040771l0 0c-0.0012817383 0 -0.002319336 -0.0010375977 -0.002319336 -0.002319336l0.002319336 -112.54887l0 0c0 -62.160305 50.390877 -112.551186 112.55118 -112.551186z" fill-rule="evenodd"></path><path fill="#f9cb9c" d="m343.86813 227.08212c14.519257 -24.608261 27.203949 -32.525803 30.140564 -18.813156c2.9365845 13.7126465 -4.71463 45.13434 -18.180359 74.662155c-13.465698 29.527832 -28.895386 48.71826 -36.662964 45.59906z" fill-rule="evenodd"></path><path fill="#f9cb9c" d="m99.27559 350.54068l0 0c0 -51.65384 41.87372 -93.52756 93.52756 -93.52756l0 0l0 0c24.805054 0 48.594162 9.85376 66.13399 27.393585c17.539795 17.539825 27.393585 41.32892 27.393585 66.13397l0 29.858276c0 51.65384 -41.87372 93.52756 -93.52757 93.52756l0 0l0 0c-51.65384 0 -93.52756 -41.87372 -93.52756 -93.52756z" fill-rule="evenodd"></path><path fill="#f9cb9c" d="m135.32068 454.43402l0 0c-40.04956 -37.694397 -75.27309 -131.5643 -79.83792 -212.76628c-4.5648346 -81.20198 23.154423 -120.8223 62.82871 -89.80374z" fill-rule="evenodd"></path><path fill="#f9cb9c" d="m252.10841 452.61124l0 0c40.049576 -37.694397 75.27309 -131.5643 79.83794 -212.76628c4.5648193 -81.20198 -23.154419 -120.8223 -62.828705 -89.80374z" fill-rule="evenodd"></path><path fill="#f9cb9c" d="m114.87664 229.6693l156.97638 0l0 61.070847l-156.97638 0z" fill-rule="evenodd"></path><path fill="#f9d3af" d="m181.67815 40.362976l22.778503 0l0 0c25.83905 0 50.619812 10.264523 68.89079 28.535492c18.270966 18.270973 28.535492 43.051727 28.535492 68.89078l0 97.426285c0 0.0010070801 -8.239746E-4 0.0018157959 -0.0018310547 0.0018157959l-217.62924 -0.0018157959l0 0c-9.994507E-4 0 -0.0018157959 -8.087158E-4 -0.0018157959 -0.0018157959l0.0018157959 -97.42447l0 0c0 -53.807037 43.619232 -97.42627 97.42628 -97.42627z" fill-rule="evenodd"></path><path fill="#f9d3af" d="m119.13418 327.39563l0 0c0 -40.442444 32.785088 -73.22754 73.22755 -73.22754l0 0l0 0c19.421143 0 38.04686 7.715027 51.779694 21.447845c13.732819 13.732849 21.447845 32.35855 21.447845 51.779694l0 41.32071c0 40.442474 -32.785095 73.22757 -73.22754 73.22757l0 0l0 0c-40.44246 0 -73.22755 -32.785095 -73.22755 -73.22757z" fill-rule="evenodd"></path><path fill="#f9d3af" d="m145.06386 422.58496l0 0c-31.382233 -35.2695 -58.023354 -117.523224 -60.424927 -186.56026c-2.4015732 -69.03705 20.289116 -100.34494 51.46492 -71.009674z" fill-rule="evenodd"></path><path fill="#f9d3af" d="m241.09052 421.00708l0 0c31.382233 -35.2695 58.023346 -117.523224 60.424927 -186.56026c2.4015808 -69.03705 -20.289124 -100.344955 -51.46492 -71.009674z" fill-rule="evenodd"></path><path fill="#f9d3af" d="m131.34935 230.49805l122.903015 0l0 52.863922l-122.903015 0z" fill-rule="evenodd"></path><path fill="#666666" d="m223.1233 361.67072l0 0c-23.401932 -7.798828 -36.650635 -18.077911 -30.543304 -23.697174c6.107315 -5.6192627 29.552673 -4.7220154 54.050507 2.068512c24.497818 6.7905273 41.953506 17.23059 40.24205 24.068329z" fill-rule="evenodd"></path><path fill="#666666" d="m164.35933 361.67072l0 0c23.401932 -7.798828 36.650635 -18.077911 30.543304 -23.697174c-6.1073303 -5.6192627 -29.552673 -4.7220154 -54.050507 2.068512c-24.497826 6.7905273 -41.95352 17.23059 -40.242043 24.068329z" fill-rule="evenodd"></path><path fill="#000000" fill-opacity="0.0" d="m83.69343 257.47968l0 0c-7.42881 -11.33876 1.6054535 -23.813477 21.614136 -29.845306c20.008682 -6.03183 45.467384 -3.955368 60.909004 4.967865c15.44162 8.923218 16.602707 22.229492 2.7778778 31.834778z" fill-rule="evenodd"></path><path stroke="#666666" stroke-width="4.0" stroke-linejoin="round" stroke-linecap="butt" d="m83.69343 257.47968l0 0c-7.42881 -11.33876 1.6054535 -23.813477 21.614136 -29.845306c20.008682 -6.03183 45.467384 -3.955368 60.909004 4.967865c15.44162 8.923218 16.602707 22.229492 2.7778778 31.834778z" fill-rule="evenodd"></path><path fill="#000000" fill-opacity="0.0" d="m303.7344 257.78552l0 0c7.4288025 -11.338776 -1.6054688 -23.813507 -21.614136 -29.845322c-20.008698 -6.03183 -45.467392 -3.955368 -60.90901 4.9678497c-15.44162 8.923218 -16.602707 22.229507 -2.7778778 31.834778z" fill-rule="evenodd"></path><path stroke="#666666" stroke-width="4.0" stroke-linejoin="round" stroke-linecap="butt" d="m303.7344 257.78552l0 0c7.4288025 -11.338776 -1.6054688 -23.813507 -21.614136 -29.845322c-20.008698 -6.03183 -45.467392 -3.955368 -60.90901 4.9678497c-15.44162 8.923218 -16.602707 22.229507 -2.7778778 31.834778z" fill-rule="evenodd"></path><path fill="#f9d3af" d="m84.53242 251.34058l82.96064 0l0 31.905518l-82.96064 0z" fill-rule="evenodd"></path><path fill="#f9d3af" d="m219.83675 250.42918l82.96062 0l0 31.905502l-82.96062 0z" fill-rule="evenodd"></path><path fill="#000000" fill-opacity="0.0" d="m61.104355 246.07549l22.803154 0" fill-rule="evenodd"></path><path stroke="#666666" stroke-width="4.0" stroke-linejoin="round" stroke-linecap="butt" d="m61.104355 246.07549l22.803154 0" fill-rule="evenodd"></path><path fill="#000000" fill-opacity="0.0" d="m303.91345 244.2527l21.73227 0.03149414" fill-rule="evenodd"></path><path stroke="#666666" stroke-width="4.0" stroke-linejoin="round" stroke-linecap="butt" d="m303.91345 244.2527l21.73227 0.03149414" fill-rule="evenodd"></path><path fill="#000000" fill-opacity="0.0" d="m62.639114 246.98688l-20.97638 -44.661423" fill-rule="evenodd"></path><path stroke="#666666" stroke-width="4.0" stroke-linejoin="round" stroke-linecap="butt" d="m62.639114 246.98688l-20.97638 -44.661423" fill-rule="evenodd"></path><path fill="#000000" fill-opacity="0.0" d="m323.7749 245.1641l20.97638 -44.661423" fill-rule="evenodd"></path><path stroke="#666666" stroke-width="4.0" stroke-linejoin="round" stroke-linecap="butt" d="m323.7749 245.1641l20.97638 -44.661423" fill-rule="evenodd"></path><path fill="#f9cb9c" d="m59.30185 315.5268l0 0c-1.1741486 -7.740692 -0.024894714 -14.333038 2.5669289 -14.724426l0 0c1.2446365 -0.18795776 2.6622887 1.1084595 3.9410744 3.6040344c1.2787933 2.4955444 2.31398 5.98584 2.8778229 9.703064l0 0c1.1741486 7.7406616 0.024894714 14.333008 -2.5669327 14.724396l0 0c-1.2446365 0.18795776 -2.662281 -1.1084595 -3.9410744 -3.604004c-1.2787895 -2.495575 -2.3139725 -5.9858704 -2.877819 -9.703064z" fill-rule="evenodd"></path><path fill="#f9cb9c" d="m75.30185 331.5268l0 0c-1.1741486 -7.740692 -0.024894714 -14.333038 2.566925 -14.724426l0 0c1.2446442 -0.18795776 2.6622925 1.1084595 3.9410782 3.6040344c1.2787933 2.4955444 2.31398 5.98584 2.8778229 9.703064l0 0c1.1741486 7.7406616 0.024894714 14.333008 -2.5669327 14.724396l0 0c-1.2446365 0.18795776 -2.6622849 -1.1084595 -3.9410706 -3.604004c-1.2787933 -2.495575 -2.31398 -5.9858704 -2.8778229 -9.703064z" fill-rule="evenodd"></path><path fill="#f9cb9c" d="m75.30185 331.5268l0 0c-1.1741486 -7.740692 -0.024894714 -14.333038 2.566925 -14.724426l0 0c1.2446442 -0.18795776 2.6622925 1.1084595 3.9410782 3.6040344c1.2787933 2.4955444 2.31398 5.98584 2.8778229 9.703064l0 0c1.1741486 7.7406616 0.024894714 14.333008 -2.5669327 14.724396l0 0c-1.2446365 0.18795776 -2.6622849 -1.1084595 -3.9410706 -3.604004c-1.2787933 -2.495575 -2.31398 -5.9858704 -2.8778229 -9.703064z" fill-rule="evenodd"></path><path fill="#f9cb9c" d="m326.6105 315.5268l0 0c1.1741638 -7.740692 0.024902344 -14.333038 -2.566925 -14.724426l0 0c-1.2446289 -0.18795776 -2.6622925 1.1084595 -3.9410706 3.6040344c-1.2788086 2.4955444 -2.3139954 5.98584 -2.8778381 9.703064l0 0c-1.1741333 7.7406616 -0.024871826 14.333008 2.566925 14.724396l0 0c1.2446594 0.18795776 2.6622925 -1.1084595 3.941101 -3.604004c1.2787781 -2.495575 2.3139648 -5.9858704 2.8778076 -9.703064z" fill-rule="evenodd"></path><path fill="#f9cb9c" d="m76.20035 261.24664l8.503937 -1.7007751l4.850395 24.314941l-8.503937 1.7008057z" fill-rule="evenodd"></path><path fill="#f9cb9c" d="m310.73752 261.85303l-8.409424 -2.11026l-5.763794 22.740173l8.409454 2.1102295z" fill-rule="evenodd"></path><path fill="#f9cb9c" d="m38.20735 252.90819l9.51181 -2.9921265l16.88189 53.4803l-9.51181 2.9921265z" fill-rule="evenodd"></path><path fill="#f9cb9c" d="m348.5223 251.25647l-9.51181 -2.9921265l-16.881897 53.480316l9.51181 2.9921265z" fill-rule="evenodd"></path><path fill="#434849" d="m128.04199 246.17717l0 0c0 -7.2884216 5.908432 -13.196854 13.196854 -13.196854l0 0c3.5000153 0 6.8566895 1.3903809 9.331589 3.865265c2.474884 2.474884 3.865265 5.831558 3.865265 9.331589l0 0c0 7.2884216 -5.908432 13.196854 -13.196854 13.196854l0 0c-7.2884216 0 -13.196854 -5.908432 -13.196854 -13.196854z" fill-rule="evenodd"></path><path fill="#ffffff" d="m142.01842 242.89906l0 0c0 -2.7135925 2.1997833 -4.913391 4.913376 -4.913391l0 0c1.3031158 0 2.5528564 0.5176697 3.474289 1.4391022c0.92144775 0.9214325 1.4391022 2.171173 1.4391022 3.474289l0 0c0 2.7135925 -2.1997986 4.913391 -4.913391 4.913391l0 0c-2.7135925 0 -4.913376 -2.1997986 -4.913376 -4.913391z" fill-rule="evenodd"></path><path fill="#434849" d="m232.48235 246.0748l0 0c0 -7.2884216 5.908432 -13.196838 13.196838 -13.196838l0 0c3.5000305 0 6.8567047 1.3903656 9.331589 3.865265c2.474884 2.474884 3.865265 5.831558 3.865265 9.3315735l0 0c0 7.2884216 -5.908432 13.196869 -13.196854 13.196869l0 0c-7.2884064 0 -13.196838 -5.9084473 -13.196838 -13.196869z" fill-rule="evenodd"></path><path fill="#ffffff" d="m246.45876 242.7967l0 0c0 -2.7135925 2.1997986 -4.913391 4.913391 -4.913391l0 0c1.3031006 0 2.5528412 0.5176544 3.474289 1.4391022c0.9214325 0.9214325 1.4390869 2.171173 1.4390869 3.474289l0 0c0 2.7135773 -2.1997986 4.913376 -4.913376 4.913376l0 0c-2.7135925 0 -4.913391 -2.1997986 -4.913391 -4.913376z" fill-rule="evenodd"></path></g></svg>

